mtllib Part Studio 1.mtl
g Part 6
usemtl 0.498039_0.498039_0.498039_0.000000_0.000000
o mesh0
v 0.0329481 0.0107548 0.005334 
v 0.0329481 0.0107548 0 
v 0.0329481 0.0177473 0 
v 0.0329481 0.0177473 0.005334 
vn 1 0 0 
vn 1 0 0 
vn 1 0 0 
vn 1 0 0 
f 1//1 2//2 3//3 
f 3//3 4//4 1//1 
o mesh1
v 0.0329481 0.0177473 0.005334 
v 0.0329481 0.0177473 0 
v 0.0254529 0.0177473 0 
v 0.0254529 0.0177473 0.005334 
vn 0 1 0 
vn 0 1 0 
vn 0 1 0 
vn 0 1 0 
f 5//5 6//6 7//7 
f 7//7 8//8 5//5 
o mesh2
v 0.0254529 0.0177473 0.005334 
v 0.0254529 0.0177473 0 
v 0.0254529 0.0107548 0 
v 0.0254529 0.0107548 0.005334 
vn -1 0 0 
vn -1 0 0 
vn -1 0 0 
vn -1 0 0 
f 9//9 10//10 11//11 
f 11//11 12//12 9//9 
o mesh3
v 0.0254529 0.0107548 0.005334 
v 0.0254529 0.0107548 0 
v 0.0329481 0.0107548 0 
v 0.0329481 0.0107548 0.005334 
vn 0 -1 0 
vn 0 -1 0 
vn 0 -1 0 
vn 0 -1 0 
f 13//13 14//14 15//15 
f 15//15 16//16 13//13 
o mesh4
v 0.0254529 0.0107548 0.005334 
v 0.0329481 0.0107548 0.005334 
v 0.0329481 0.0177473 0.005334 
v 0.0254529 0.0177473 0.005334 
vn 0 0 1 
vn 0 0 1 
vn 0 0 1 
vn 0 0 1 
f 17//17 18//18 19//19 
f 19//19 20//20 17//17 
o mesh5
v 0.0254529 0.0177473 0 
v 0.0329481 0.0177473 0 
v 0.0329481 0.0107548 0 
v 0.0254529 0.0107548 0 
vn 0 0 -1 
vn 0 0 -1 
vn 0 0 -1 
vn 0 0 -1 
f 21//21 22//22 23//23 
f 23//23 24//24 21//21 
g Part 7
o mesh6
v 0.0329481 0.025169 0.005334 
v 0.0329481 0.025169 0 
v 0.0329481 0.0177473 0 
v 0.0329481 0.0177473 0.005334 
vn -1 0 0 
vn -1 0 0 
vn -1 0 0 
vn -1 0 0 
f 25//25 26//26 27//27 
f 27//27 28//28 25//25 
o mesh7
v 0.0329481 0.0177473 0.005334 
v 0.0329481 0.0177473 0 
v 0.0415112 0.0177473 0 
v 0.0415112 0.0177473 0.005334 
vn 0 -1 0 
vn 0 -1 0 
vn 0 -1 0 
vn 0 -1 0 
f 29//29 30//30 31//31 
f 31//31 32//32 29//29 
o mesh8
v 0.0415112 0.0177473 0.005334 
v 0.0415112 0.0177473 0 
v 0.0415112 0.025169 0 
v 0.0415112 0.025169 0.005334 
vn 1 0 0 
vn 1 0 0 
vn 1 0 0 
vn 1 0 0 
f 33//33 34//34 35//35 
f 35//35 36//36 33//33 
o mesh9
v 0.0415112 0.025169 0.005334 
v 0.0415112 0.025169 0 
v 0.0329481 0.025169 0 
v 0.0329481 0.025169 0.005334 
vn 0 1 0 
vn 0 1 0 
vn 0 1 0 
vn 0 1 0 
f 37//37 38//38 39//39 
f 39//39 40//40 37//37 
o mesh10
v 0.0415112 0.025169 0.005334 
v 0.0329481 0.025169 0.005334 
v 0.0329481 0.0177473 0.005334 
v 0.0415112 0.0177473 0.005334 
vn 0 0 1 
vn 0 0 1 
vn 0 0 1 
vn 0 0 1 
f 41//41 42//42 43//43 
f 43//43 44//44 41//41 
o mesh11
v 0.0415112 0.0177473 0 
v 0.0329481 0.0177473 0 
v 0.0329481 0.025169 0 
v 0.0415112 0.025169 0 
vn 0 0 -1 
vn 0 0 -1 
vn 0 0 -1 
vn 0 0 -1 
f 45//45 46//46 47//47 
f 47//47 48//48 45//45 
g Part 4
o mesh12
v -0.0395288 0.0107548 0.005334 
v -0.0395288 0.0107548 0 
v -0.0395288 0.018155 0 
v -0.0395288 0.018155 0.005334 
vn 1 0 0 
vn 1 0 0 
vn 1 0 0 
vn 1 0 0 
f 49//49 50//50 51//51 
f 51//51 52//52 49//49 
o mesh13
v -0.0395288 0.018155 0.005334 
v -0.0395288 0.018155 0 
v -0.0469019 0.018155 0 
v -0.0469019 0.018155 0.005334 
vn 0 1 0 
vn 0 1 0 
vn 0 1 0 
vn 0 1 0 
f 53//53 54//54 55//55 
f 55//55 56//56 53//53 
o mesh14
v -0.0469019 0.018155 0.005334 
v -0.0469019 0.018155 0 
v -0.0469019 0.0107548 0 
v -0.0469019 0.0107548 0.005334 
vn -1 0 0 
vn -1 0 0 
vn -1 0 0 
vn -1 0 0 
f 57//57 58//58 59//59 
f 59//59 60//60 57//57 
o mesh15
v -0.0469019 0.0107548 0.005334 
v -0.0469019 0.0107548 0 
v -0.0395288 0.0107548 0 
v -0.0395288 0.0107548 0.005334 
vn 0 -1 0 
vn 0 -1 0 
vn 0 -1 0 
vn 0 -1 0 
f 61//61 62//62 63//63 
f 63//63 64//64 61//61 
o mesh16
v -0.0469019 0.0107548 0.005334 
v -0.0395288 0.0107548 0.005334 
v -0.0395288 0.018155 0.005334 
v -0.0469019 0.018155 0.005334 
vn 0 0 1 
vn 0 0 1 
vn 0 0 1 
vn 0 0 1 
f 65//65 66//66 67//67 
f 67//67 68//68 65//65 
o mesh17
v -0.0469019 0.018155 0 
v -0.0395288 0.018155 0 
v -0.0395288 0.0107548 0 
v -0.0469019 0.0107548 0 
vn 0 0 -1 
vn 0 0 -1 
vn 0 0 -1 
vn 0 0 -1 
f 69//69 70//70 71//71 
f 71//71 72//72 69//69 
g Part 5
o mesh18
v -0.0395288 0.0247998 0.005334 
v -0.0395288 0.0247998 0 
v -0.0395288 0.018155 0 
v -0.0395288 0.018155 0.005334 
vn -1 0 0 
vn -1 0 0 
vn -1 0 0 
vn -1 0 0 
f 73//73 74//74 75//75 
f 75//75 76//76 73//73 
o mesh19
v -0.0395288 0.018155 0.005334 
v -0.0395288 0.018155 0 
v -0.0317665 0.018155 0 
v -0.0317665 0.018155 0.005334 
vn 0 -1 0 
vn 0 -1 0 
vn 0 -1 0 
vn 0 -1 0 
f 77//77 78//78 79//79 
f 79//79 80//80 77//77 
o mesh20
v -0.0317665 0.018155 0.005334 
v -0.0317665 0.018155 0 
v -0.0317665 0.0247998 0 
v -0.0317665 0.0247998 0.005334 
vn 1 0 0 
vn 1 0 0 
vn 1 0 0 
vn 1 0 0 
f 81//81 82//82 83//83 
f 83//83 84//84 81//81 
o mesh21
v -0.0317665 0.0247998 0.005334 
v -0.0317665 0.0247998 0 
v -0.0395288 0.0247998 0 
v -0.0395288 0.0247998 0.005334 
vn 0 1 0 
vn 0 1 0 
vn 0 1 0 
vn 0 1 0 
f 85//85 86//86 87//87 
f 87//87 88//88 85//85 
o mesh22
v -0.0317665 0.0247998 0.005334 
v -0.0395288 0.0247998 0.005334 
v -0.0395288 0.018155 0.005334 
v -0.0317665 0.018155 0.005334 
vn 0 0 1 
vn 0 0 1 
vn 0 0 1 
vn 0 0 1 
f 89//89 90//90 91//91 
f 91//91 92//92 89//89 
o mesh23
v -0.0317665 0.018155 0 
v -0.0395288 0.018155 0 
v -0.0395288 0.0247998 0 
v -0.0317665 0.0247998 0 
vn 0 0 -1 
vn 0 0 -1 
vn 0 0 -1 
vn 0 0 -1 
f 93//93 94//94 95//95 
f 95//95 96//96 93//93 
g Part 1
usemtl 0.000000_0.000000_0.000000_0.000000_0.000000
o mesh24
v 0.0504293 0.0177473 0.004064 
v 0.0504293 0.0177473 0 
v 0.0504293 0.0228572 0 
v 0.0504293 0.0228572 0.004064 
vn 1 0 0 
vn 1 0 0 
vn 1 0 0 
vn 1 0 0 
f 97//97 98//98 99//99 
f 99//99 100//100 97//97 
o mesh25
v 0.0504293 0.0228572 0.004064 
v 0.0504293 0.0228572 0 
v 0.1061 0.0228572 0 
v 0.1061 0.0228572 0.004064 
vn 0 -1 0 
vn 0 -1 0 
vn 0 -1 0 
vn 0 -1 0 
f 101//101 102//102 103//103 
f 103//103 104//104 101//101 
o mesh26
v 0.1061 0.0228572 0.004064 
v 0.1061 0.0228572 0 
v 0.105562 0.0290428 0 
v 0.105562 0.0290428 0.004064 
vn 0.996241 0.0866304 0 
vn 0.996241 0.0866304 0 
vn 0.996241 0.0866304 0 
vn 0.996241 0.0866304 0 
f 105//105 106//106 107//107 
f 107//107 108//108 105//105 
o mesh27
v 0.105562 0.0290428 0.004064 
v 0.105562 0.0290428 0 
v -0.089958 0.0290428 0 
v -0.089958 0.0290428 0.004064 
vn 0 1 0 
vn 0 1 0 
vn 0 1 0 
vn 0 1 0 
f 109//109 110//110 111//111 
f 111//111 112//112 109//109 
o mesh28
v -0.089958 0.0290428 0.004064 
v -0.089958 0.0290428 0 
v -0.089958 0.0177473 0 
v -0.089958 0.0177473 0.004064 
vn -1 0 0 
vn -1 0 0 
vn -1 0 0 
vn -1 0 0 
f 113//113 114//114 115//115 
f 115//115 116//116 113//113 
o mesh29
v -0.089958 0.0177473 0.004064 
v -0.089958 0.0177473 0 
v -0.080814 0.0177473 0 
v -0.080814 0.0177473 0.004064 
vn 0 -1 0 
vn 0 -1 0 
vn 0 -1 0 
vn 0 -1 0 
f 117//117 118//118 119//119 
f 119//119 120//120 117//117 
o mesh30
v -0.080814 0.0177473 0.004064 
v -0.080814 0.0177473 0 
v -0.080814 0.0107548 0 
v -0.080814 0.0107548 0.004064 
vn -1 0 0 
vn -1 0 0 
vn -1 0 0 
vn -1 0 0 
f 121//121 122//122 123//123 
f 123//123 124//124 121//121 
o mesh31
v -0.080814 0.0107548 0.004064 
v -0.080814 0.0107548 0 
v -0.0724768 0.0107548 0 
v -0.0724768 0.0107548 0.004064 
vn 0 -1 0 
vn 0 -1 0 
vn 0 -1 0 
vn 0 -1 0 
f 125//125 126//126 127//127 
f 127//127 128//128 125//125 
o mesh32
v -0.0724768 0.0107548 0.004064 
v -0.0724768 0.0107548 0 
v -0.0724768 0.00322449 0 
v -0.0724768 0.00322449 0.004064 
vn -1 0 0 
vn -1 0 0 
vn -1 0 0 
vn -1 0 0 
f 129//129 130//130 131//131 
f 131//131 132//132 129//129 
o mesh33
v -0.0724768 0.00322449 0.004064 
v -0.0724768 0.00322449 0 
v -0.0395288 0.00322449 0 
v -0.0395288 0.00322449 0.004064 
vn 0 -1 0 
vn 0 -1 0 
vn 0 -1 0 
vn 0 -1 0 
f 133//133 134//134 135//135 
f 135//135 136//136 133//133 
o mesh34
v -0.0395288 0.00322449 0.004064 
v -0.0395288 0.00322449 0 
v -0.0395288 0.0107548 0 
v -0.0395288 0.0107548 0.004064 
vn 1 0 0 
vn 1 0 0 
vn 1 0 0 
vn 1 0 0 
f 137//137 138//138 139//139 
f 139//139 140//140 137//137 
o mesh35
v -0.0395288 0.0107548 0.004064 
v -0.0395288 0.0107548 0 
v -0.0289084 0.0107548 0 
v -0.0289084 0.0107548 0.004064 
vn 0 -1 0 
vn 0 -1 0 
vn 0 -1 0 
vn 0 -1 0 
f 141//141 142//142 143//143 
f 143//143 144//144 141//141 
o mesh36
v -0.0289084 0.0107548 0.004064 
v -0.0289084 0.0107548 0 
v -0.0289084 0.0177473 0 
v -0.0289084 0.0177473 0.004064 
vn 1 0 0 
vn 1 0 0 
vn 1 0 0 
vn 1 0 0 
f 145//145 146//146 147//147 
f 147//147 148//148 145//145 
o mesh37
v -0.0289084 0.0177473 0.004064 
v -0.0289084 0.0177473 0 
v -0.0106204 0.0177473 0 
v -0.0106204 0.0177473 0.004064 
vn 0 -1 0 
vn 0 -1 0 
vn 0 -1 0 
vn 0 -1 0 
f 149//149 150//150 151//151 
f 151//151 152//152 149//149 
o mesh38
v -0.0106204 0.0177473 0.004064 
v -0.0106204 0.0177473 0 
v -0.0106204 0.0107548 0 
v -0.0106204 0.0107548 0.004064 
vn -1 0 0 
vn -1 0 0 
vn -1 0 0 
vn -1 0 0 
f 153//153 154//154 155//155 
f 155//155 156//156 153//153 
o mesh39
v -0.0106204 0.0107548 0.004064 
v -0.0106204 0.0107548 0 
v 0 0.0107548 0 
v 0 0.0107548 0.004064 
vn 0 -1 0 
vn 0 -1 0 
vn 0 -1 0 
vn 0 -1 0 
f 157//157 158//158 159//159 
f 159//159 160//160 157//157 
o mesh40
v 0 0.0107548 0.004064 
v 0 0.0107548 0 
v 0 0.00322449 0 
v 0 0.00322449 0.004064 
vn -1 0 0 
vn -1 0 0 
vn -1 0 0 
vn -1 0 0 
f 161//161 162//162 163//163 
f 163//163 164//164 161//161 
o mesh41
v 0 0.00322449 0.004064 
v 0 0.00322449 0 
v 0.0329481 0.00322449 0 
v 0.0329481 0.00322449 0.004064 
vn 0 -1 0 
vn 0 -1 0 
vn 0 -1 0 
vn 0 -1 0 
f 165//165 166//166 167//167 
f 167//167 168//168 165//165 
o mesh42
v 0.0329481 0.00322449 0.004064 
v 0.0329481 0.00322449 0 
v 0.0329481 0.0107548 0 
v 0.0329481 0.0107548 0.004064 
vn 1 0 0 
vn 1 0 0 
vn 1 0 0 
vn 1 0 0 
f 169//169 170//170 171//171 
f 171//171 172//172 169//169 
o mesh43
v 0.0504293 0.0228572 0.004064 
v 0 0.0107548 0.004064 
v 0.0412853 0.0177473 0.004064 
v 0.0329481 0.0107548 0.004064 
v 0.0412853 0.0107548 0.004064 
v 0.0329481 0.00322449 0.004064 
v 0 0.00322449 0.004064 
v -0.0106204 0.0177473 0.004064 
v -0.0106204 0.0107548 0.004064 
v -0.080814 0.0177473 0.004064 
v -0.0289084 0.0177473 0.004064 
v -0.080814 0.0107548 0.004064 
v -0.0724768 0.0107548 0.004064 
v -0.0395288 0.0107548 0.004064 
v -0.0395288 0.00322449 0.004064 
v -0.0724768 0.00322449 0.004064 
v 0.0504293 0.0177473 0.004064 
v -0.089958 0.0290428 0.004064 
v -0.089958 0.0177473 0.004064 
v 0.105562 0.0290428 0.004064 
v -0.0289084 0.0107548 0.004064 
v 0.1061 0.0228572 0.004064 
vn 0 0 1 
vn 0 0 1 
vn 0 0 1 
vn 0 0 1 
vn 0 0 1 
vn 0 0 1 
vn 0 0 1 
vn 0 0 1 
vn 0 0 1 
vn 0 0 1 
vn 0 0 1 
vn 0 0 1 
vn 0 0 1 
vn 0 0 1 
vn 0 0 1 
vn 0 0 1 
vn 0 0 1 
vn 0 0 1 
vn 0 0 1 
vn 0 0 1 
vn 0 0 1 
vn 0 0 1 
f 173//173 174//174 175//175 
f 175//175 174//174 176//176 
f 176//176 177//177 175//175 
f 178//178 176//176 174//174 
f 174//174 179//179 178//178 
f 180//180 181//181 174//174 
f 173//173 182//182 183//183 
f 182//182 184//184 185//185 
f 183//183 185//185 186//186 
f 187//187 186//186 185//185 
f 174//174 173//173 180//180 
f 185//185 183//183 182//182 
f 185//185 188//188 187//187 
f 183//183 180//180 173//173 
f 175//175 189//189 173//173 
f 190//190 191//191 182//182 
f 192//192 190//190 173//173 
f 182//182 173//173 190//190 
f 186//186 193//193 183//183 
f 173//173 194//194 192//192 
o mesh44
v -0.089958 0.0290428 0 
v -0.0395288 0.0107548 0 
v -0.080814 0.0177473 0 
v -0.0724768 0.0107548 0 
v -0.080814 0.0107548 0 
v -0.0724768 0.00322449 0 
v -0.0395288 0.00322449 0 
v -0.0289084 0.0177473 0 
v -0.0289084 0.0107548 0 
v 0.0412853 0.0177473 0 
v -0.0106204 0.0177473 0 
v 0.0412853 0.0107548 0 
v 0.0329481 0.0107548 0 
v 0 0.0107548 0 
v 0 0.00322449 0 
v 0.0329481 0.00322449 0 
v 0.0504293 0.0228572 0 
v 0.0504293 0.0177473 0 
v 0.105562 0.0290428 0 
v 0.1061 0.0228572 0 
v -0.089958 0.0177473 0 
v -0.0106204 0.0107548 0 
vn 0 0 -1 
vn 0 0 -1 
vn 0 0 -1 
vn 0 0 -1 
vn 0 0 -1 
vn 0 0 -1 
vn 0 0 -1 
vn 0 0 -1 
vn 0 0 -1 
vn 0 0 -1 
vn 0 0 -1 
vn 0 0 -1 
vn 0 0 -1 
vn 0 0 -1 
vn 0 0 -1 
vn 0 0 -1 
vn 0 0 -1 
vn 0 0 -1 
vn 0 0 -1 
vn 0 0 -1 
vn 0 0 -1 
vn 0 0 -1 
f 195//195 196//196 197//197 
f 197//197 196//196 198//198 
f 198//198 199//199 197//197 
f 200//200 198//198 196//196 
f 196//196 201//201 200//200 
f 202//202 203//203 196//196 
f 195//195 204//204 205//205 
f 204//204 206//206 207//207 
f 205//205 207//207 208//208 
f 209//209 208//208 207//207 
f 196//196 195//195 202//202 
f 207//207 205//205 204//204 
f 207//207 210//210 209//209 
f 205//205 202//202 195//195 
f 211//211 212//212 204//204 
f 213//213 214//214 211//211 
f 197//197 215//215 195//195 
f 211//211 195//195 213//213 
f 204//204 195//195 211//211 
f 208//208 216//216 205//205 
o mesh45
v 0.0329481 0.0107548 0.004064 
v 0.0329481 0.0107548 0 
v 0.0412853 0.0107548 0 
v 0.0412853 0.0107548 0.004064 
vn 0 -1 0 
vn 0 -1 0 
vn 0 -1 0 
vn 0 -1 0 
f 217//217 218//218 219//219 
f 219//219 220//220 217//217 
o mesh46
v 0.0412853 0.0107548 0.004064 
v 0.0412853 0.0107548 0 
v 0.0412853 0.0177473 0 
v 0.0412853 0.0177473 0.004064 
vn 1 0 0 
vn 1 0 0 
vn 1 0 0 
vn 1 0 0 
f 221//221 222//222 223//223 
f 223//223 224//224 221//221 
o mesh47
v 0.0412853 0.0177473 0.004064 
v 0.0412853 0.0177473 0 
v 0.0504293 0.0177473 0 
v 0.0504293 0.0177473 0.004064 
vn 0 -1 0 
vn 0 -1 0 
vn 0 -1 0 
vn 0 -1 0 
f 225//225 226//226 227//227 
f 227//227 228//228 225//225 
g Part 3
o mesh48
v 0.123043 0.0164026 0.004064 
v 0.123043 0.0164026 0 
v 0.113093 0.0164026 0 
v 0.113093 0.0164026 0.004064 
vn 0 1 0 
vn 0 1 0 
vn 0 1 0 
vn 0 1 0 
f 229//229 230//230 231//231 
f 231//231 232//232 229//229 
o mesh49
v 0.113093 0.0164026 0.004064 
v 0.113093 0.0164026 0 
v 0.113093 0.00941014 0 
v 0.113093 0.00941014 0.004064 
vn -1 0 0 
vn -1 0 0 
vn -1 0 0 
vn -1 0 0 
f 233//233 234//234 235//235 
f 235//235 236//236 233//233 
o mesh50
v 0.113093 0.00941014 0.004064 
v 0.113093 0.00941014 0 
v 0.123043 0.00941014 0 
v 0.123043 0.00941014 0.004064 
vn 0 -1 0 
vn 0 -1 0 
vn 0 -1 0 
vn 0 -1 0 
f 237//237 238//238 239//239 
f 239//239 240//240 237//237 
o mesh51
v 0.123043 0.00941014 0.004064 
v 0.123043 0.00941014 0 
v 0.123043 0.0164026 0 
v 0.123043 0.0164026 0.004064 
vn 1 0 0 
vn 1 0 0 
vn 1 0 0 
vn 1 0 0 
f 241//241 242//242 243//243 
f 243//243 244//244 241//241 
o mesh52
v 0.123043 0.00941014 0.004064 
v 0.123043 0.0164026 0.004064 
v 0.113093 0.0164026 0.004064 
v 0.113093 0.00941014 0.004064 
vn 0 0 1 
vn 0 0 1 
vn 0 0 1 
vn 0 0 1 
f 245//245 246//246 247//247 
f 247//247 248//248 245//245 
o mesh53
v 0.113093 0.00941014 0 
v 0.113093 0.0164026 0 
v 0.123043 0.0164026 0 
v 0.123043 0.00941014 0 
vn 0 0 -1 
vn 0 0 -1 
vn 0 0 -1 
vn 0 0 -1 
f 249//249 250//250 251//251 
f 251//251 252//252 249//249 
g Part 2
o mesh54
v 0.113093 0.0164026 0.004064 
v 0.113093 0.0164026 0 
v 0.113093 0.0228572 0 
v 0.113093 0.0228572 0.004064 
vn 1 0 0 
vn 1 0 0 
vn 1 0 0 
vn 1 0 0 
f 253//253 254//254 255//255 
f 255//255 256//256 253//253 
o mesh55
v 0.113093 0.0228572 0.004064 
v 0.113093 0.0228572 0 
v 0.1061 0.0228572 0 
v 0.1061 0.0228572 0.004064 
vn 0 1 0 
vn 0 1 0 
vn 0 1 0 
vn 0 1 0 
f 257//257 258//258 259//259 
f 259//259 260//260 257//257 
o mesh56
v 0.1061 0.0228572 0.004064 
v 0.1061 0.0228572 0 
v 0.1061 0.0164026 0 
v 0.1061 0.0164026 0.004064 
vn -1 0 0 
vn -1 0 0 
vn -1 0 0 
vn -1 0 0 
f 261//261 262//262 263//263 
f 263//263 264//264 261//261 
o mesh57
v 0.1061 0.0164026 0.004064 
v 0.1061 0.0164026 0 
v 0.113093 0.0164026 0 
v 0.113093 0.0164026 0.004064 
vn 0 -1 0 
vn 0 -1 0 
vn 0 -1 0 
vn 0 -1 0 
f 265//265 266//266 267//267 
f 267//267 268//268 265//265 
o mesh58
v 0.1061 0.0164026 0.004064 
v 0.113093 0.0164026 0.004064 
v 0.113093 0.0228572 0.004064 
v 0.1061 0.0228572 0.004064 
vn 0 0 1 
vn 0 0 1 
vn 0 0 1 
vn 0 0 1 
f 269//269 270//270 271//271 
f 271//271 272//272 269//269 
o mesh59
v 0.1061 0.0228572 0 
v 0.113093 0.0228572 0 
v 0.113093 0.0164026 0 
v 0.1061 0.0164026 0 
vn 0 0 -1 
vn 0 0 -1 
vn 0 0 -1 
vn 0 0 -1 
f 273//273 274//274 275//275 
f 275//275 276//276 273//273 
